# xmcd
#
# Track frame offsets:
#	150
#	21505
#	47623
#	67415
#	87783
#	107763
#	127078
#	146263
#	167223
#	189303
#
# Disc length: 2812 seconds
#
# Revision: 0
# Processed by: cddbd v1.5.1PL2 Copyright (c) Steve Scherf et al.
# Submitted via: audiograbber 1.83.01
#
DISCID=8e0afa0a
DTITLE=бийу кеамдяос  - пуяетос тоу еяыта
DYEAR=1989
DGENRE=екажяа
TTITLE0=пуяетос тоу еяыта 
TTITLE1=пио думатг 
TTITLE2=се ка би 
TTITLE3=ха се бяы 
TTITLE4=сто пакио немодовеио
TTITLE5=дем упаявоуле пиа 
TTITLE6=та хекы ока 
TTITLE7=евеис тосг ломаниа 
TTITLE8=лг яытас 
TTITLE9=йоййимес епицяажес 
EXTD=
EXTT0=
EXTT1=
EXTT2=
EXTT3=
EXTT4=
EXTT5=
EXTT6=
EXTT7=
EXTT8=
EXTT9=
PLAYORDER=
